<svg width="6" height="6" viewBox="0 0 6 6" fill="none" xmlns="http://www.w3.org/2000/svg">
<path d="M4.91676 0.426963H3.58029L3.46892 0.226493C3.42437 0.137395 3.33527 0.0705715 3.23504 0.0705715H1.95425C1.85402 0.0705715 1.76492 0.137395 1.72037 0.226493L1.62013 0.426963H0.283665C0.183429 0.426963 0.105469 0.516061 0.105469 0.605159V0.961551C0.105469 1.06179 0.183429 1.13975 0.283665 1.13975H4.91676C5.00586 1.13975 5.09496 1.06179 5.09496 0.961551V0.605159C5.09496 0.516061 5.00586 0.426963 4.91676 0.426963ZM0.695743 5.27167C0.70688 5.56123 0.940762 5.77284 1.23033 5.77284H3.95896C4.24853 5.77284 4.48241 5.56123 4.49354 5.27167L4.73856 1.49614H0.461861L0.695743 5.27167Z" fill="#868E96"/>
</svg>
